<?xml version="1.0" encoding="utf-8"?>
<!-- Generator: Adobe Illustrator 26.0.2, SVG Export Plug-In . SVG Version: 6.00 Build 0)  -->
<svg version="1.1" id="Warstwa_3" xmlns="http://www.w3.org/2000/svg" xmlns:xlink="http://www.w3.org/1999/xlink" x="0px" y="0px"
	 viewBox="0 0 430 430" style="enable-background:new 0 0 430 430;" xml:space="preserve">
<style type="text/css">
	.st0{fill:#121331;}
	.st1{fill:#f9c9c0;}
	.st2{opacity:0.5;fill:#f9c9c0;}
	.st3{fill:#646E78;}
	.st4{opacity:0.5;fill:#646E78;}
	.st5{fill:#3A3347;}
	.st6{opacity:0.5;fill:#3A3347;}
	.st7{fill:#B26836;}
	.st8{opacity:0.5;fill:#B26836;}
	.st9{fill:#ffc738;}
	.st10{fill:#4bb3fd;}
	.st11{fill:#f28ba8;}
	.st12{opacity:0.5;fill:#f28ba8;}
	.st13{opacity:0.5;fill:#4bb3fd;}
	.st14{fill:#EBE6EF;}
	.st15{opacity:0.5;fill:#EBE6EF;}
	.st16{opacity:0.5;fill:#ffc738;}
	.st17{fill:#92140C;}
	.st18{opacity:0.5;fill:#92140C;}
	.st19{fill:#F24C00;}
	.st20{opacity:0.5;fill:#F24C00;}
	.st21{fill:#2CA58D;}
	.st22{opacity:0.5;fill:#2CA58D;}
	.st23{clip-path:url(#SVGID_00000078033071977549917070000002349838110855503244_);fill:#121331;}
	.st24{fill:none;stroke:#121331;stroke-width:7;stroke-linecap:round;stroke-linejoin:round;stroke-miterlimit:10;}
	.st25{opacity:0.5;}
	.st26{fill:none;stroke:#4bb3fd;stroke-width:7;stroke-linecap:round;stroke-linejoin:round;stroke-miterlimit:10;}
</style>
<path class="st9" d="M260.96,298.55c-0.81,0.81-1.96,1.23-3.43,1.29L66.84,371.8c-5.64,2.13-11.15-3.38-9.02-9.02l71.95-190.67
	c0.06-1.48,0.48-2.64,1.29-3.45c7.19-7.19,42.1,16.06,77.96,51.93C244.89,256.46,268.14,291.37,260.96,298.55z"/>
<path class="st16" d="M260.96,298.55c-0.81,0.81-1.96,1.23-3.43,1.29c-11.6,0.52-42.68-21.37-74.53-53.22
	c-19.21-19.21-34.81-38.15-44.04-52.7L75.24,362.78c-0.77,2.04-0.54,4.07,0.34,5.72l-8.74,3.3c-5.64,2.13-11.15-3.38-9.02-9.02
	l71.95-190.67c0.06-1.48,0.48-2.64,1.29-3.45c0.11-0.11,0.23-0.21,0.35-0.31c0.25-0.19,0.52-0.35,0.81-0.49
	c0.15-0.07,0.31-0.13,0.47-0.18c0.93-0.32,2.06-0.4,3.38-0.26c0.41,0.04,0.84,0.1,1.28,0.19c0.44,0.09,0.91,0.19,1.38,0.31
	c0.29,0.07,0.57,0.15,0.87,0.24c0.7,0.21,1.43,0.46,2.2,0.75c0.85,0.31,1.75,0.68,2.68,1.11c0.49,0.21,0.99,0.45,1.51,0.7
	c0.42,0.19,0.84,0.4,1.27,0.62c15.15,7.64,38.25,25.73,61.76,49.25C244.89,256.46,268.14,291.37,260.96,298.55z"/>
<path class="st0" d="M260.96,302.05c-0.9,0-1.79-0.34-2.47-1.03c-1.37-1.37-1.37-3.58,0-4.95c0.71-0.71,1.05-6.83-10.26-23.81
	c-9.68-14.54-24.48-32.01-41.67-49.2c-17.19-17.19-34.66-31.99-49.2-41.67c-16.98-11.31-23.1-10.97-23.81-10.26
	c-1.37,1.37-3.58,1.37-4.95,0c-1.37-1.37-1.37-3.58,0-4.95c12.25-12.26,59.59,28.61,82.91,51.93
	c23.32,23.32,64.18,70.66,51.93,82.91C262.75,301.71,261.85,302.05,260.96,302.05z"/>
<path class="st0" d="M64.32,375.77c-2.72,0-5.36-1.07-7.38-3.09c-2.96-2.96-3.88-7.22-2.4-11.14l71.96-190.69
	c0.68-1.81,2.7-2.72,4.51-2.04c1.81,0.68,2.72,2.7,2.04,4.51L61.09,364.01c-0.74,1.96,0.43,3.34,0.8,3.72
	c0.38,0.38,1.75,1.54,3.72,0.8l190.69-71.96c1.81-0.68,3.83,0.23,4.51,2.04c0.68,1.81-0.23,3.83-2.04,4.51L68.08,375.08
	C66.84,375.54,65.57,375.77,64.32,375.77z"/>
<path class="st0" d="M260.96,302.05c-0.96,0-1.92-0.4-2.62-1.17c-1.28-1.44-1.16-3.65,0.29-4.94l0.01-0.01
	c1.45-1.28,3.66-1.15,4.94,0.29c1.28,1.44,1.15,3.66-0.29,4.94C262.62,301.75,261.79,302.05,260.96,302.05z"/>
<path class="st0" d="M131.06,172.15c-0.83,0-1.66-0.29-2.32-0.88c-1.44-1.28-1.58-3.49-0.29-4.94l0.01-0.01
	c1.28-1.45,3.5-1.58,4.94-0.29c1.44,1.28,1.58,3.5,0.29,4.94C133,171.76,132.03,172.15,131.06,172.15z"/>
<path class="st1" d="M250.26,200.38c-0.83,0-1.66-0.29-2.33-0.89c-1.44-1.29-1.56-3.5-0.28-4.94c6.2-6.93,14.71-5.26,22.21-3.79
	c7.53,1.48,12.34,2.11,15.64-1.59c3.3-3.7,2.14-8.4-0.17-15.72c-2.3-7.29-4.91-15.56,1.29-22.49c6.2-6.93,14.71-5.26,22.21-3.79
	c7.52,1.48,12.33,2.11,15.64-1.58c1.29-1.44,3.5-1.56,4.94-0.28c1.44,1.29,1.56,3.5,0.28,4.94c-6.2,6.93-14.7,5.26-22.21,3.79
	c-7.53-1.48-12.34-2.11-15.64,1.58c-3.3,3.7-2.14,8.41,0.17,15.72c2.3,7.29,4.91,15.56-1.29,22.49c-6.2,6.93-14.71,5.26-22.21,3.79
	c-7.53-1.48-12.34-2.11-15.64,1.59C252.18,199.98,251.22,200.38,250.26,200.38z"/>
<path class="st1" d="M223.97,159.71c-1.88,0-3.43-1.49-3.5-3.39c-0.3-9.3,7.01-13.96,13.45-18.07c6.47-4.13,10.38-6.99,10.22-11.95
	s-4.25-7.56-10.97-11.26c-6.7-3.69-14.29-7.87-14.59-17.16c-0.3-9.3,7.01-13.96,13.45-18.07c6.47-4.12,10.38-6.99,10.22-11.94
	c-0.06-1.93,1.45-3.55,3.38-3.61c1.95-0.05,3.55,1.45,3.61,3.38c0.3,9.3-7.01,13.96-13.45,18.07c-6.47,4.13-10.38,6.99-10.22,11.94
	c0.16,4.96,4.25,7.56,10.97,11.26c6.7,3.69,14.29,7.87,14.59,17.17s-7.01,13.96-13.45,18.07c-6.47,4.13-10.38,6.99-10.22,11.94
	c0.06,1.93-1.45,3.55-3.38,3.61C224.04,159.7,224.01,159.71,223.97,159.71z"/>
<path class="st9" d="M178.18,73.47c-0.61,0-1.22-0.16-1.79-0.49c-1.66-0.99-2.21-3.14-1.22-4.8l7.28-12.24
	c0.99-1.66,3.13-2.21,4.8-1.22c1.66,0.99,2.21,3.14,1.22,4.8l-7.28,12.24C180.54,72.86,179.38,73.47,178.18,73.47z"/>
<path class="st9" d="M305.69,366.23c-1.18,0-2.34-0.6-3-1.69c-1-1.65-0.48-3.8,1.18-4.81l15.3-9.28c1.65-1,3.81-0.48,4.81,1.18
	c1,1.65,0.48,3.8-1.18,4.81l-15.3,9.28C306.94,366.06,306.31,366.23,305.69,366.23z"/>
<path class="st10" d="M365.84,296.24c-0.61,0-1.22-0.16-1.79-0.49c-1.66-0.99-2.21-3.14-1.22-4.8l7.28-12.24
	c0.99-1.66,3.13-2.21,4.8-1.22c1.66,0.99,2.21,3.14,1.22,4.8l-7.28,12.24C368.2,295.63,367.03,296.24,365.84,296.24z"/>
<path class="st10" d="M56.88,234.61c-0.9,0-1.79-0.34-2.47-1.03c-1.37-1.37-1.37-3.58,0-4.95l10.07-10.07
	c1.37-1.37,3.58-1.37,4.95,0c1.37,1.37,1.37,3.58,0,4.95l-10.07,10.07C58.67,234.26,57.78,234.61,56.88,234.61z"/>
<path class="st10" d="M338.11,86.98c-0.9,0-1.79-0.34-2.47-1.03l-10.07-10.07c-1.37-1.37-1.37-3.58,0-4.95
	c1.37-1.37,3.58-1.37,4.95,0l10.07,10.07c1.37,1.37,1.37,3.58,0,4.95C339.9,86.64,339.01,86.98,338.11,86.98z"/>
<path class="st1" d="M213.93,366.26c-1.4,0-2.73-0.85-3.26-2.24l-5.14-13.28c-0.7-1.8,0.2-3.83,2-4.53c1.8-0.7,3.83,0.2,4.53,2
	l5.14,13.28c0.7,1.8-0.2,3.83-2,4.53C214.77,366.18,214.35,366.26,213.93,366.26z"/>
<path class="st1" d="M95.48,147.96c-0.81,0-1.62-0.28-2.28-0.85l-10.79-9.29c-1.46-1.26-1.63-3.47-0.37-4.94
	c1.26-1.46,3.47-1.63,4.94-0.37l10.79,9.29c1.46,1.26,1.63,3.47,0.37,4.94C97.45,147.55,96.47,147.96,95.48,147.96z"/>
<path class="st1" d="M349.74,215.69c-1.53,0-2.93-1.01-3.37-2.55l-3.86-13.71c-0.52-1.86,0.56-3.79,2.42-4.32
	c1.87-0.52,3.79,0.56,4.32,2.42l3.86,13.71c0.52,1.86-0.56,3.79-2.42,4.32C350.38,215.65,350.06,215.69,349.74,215.69z"/>
<path class="st11" d="M321.09,312.52c-1.93,0-3.5-1.57-3.5-3.5c0-29.76-17.56-43.94-32.29-50.59c-28.89-13.05-66.49-6.75-82.16,7.06
	c-1.45,1.28-3.66,1.14-4.94-0.31c-1.28-1.45-1.14-3.66,0.31-4.94c19.79-17.45,60.86-21.21,89.67-8.19
	c23.48,10.6,36.41,30.84,36.41,56.97C324.59,310.96,323.02,312.52,321.09,312.52z"/>
<path class="st11" d="M170.76,236.5c-0.59,0-1.19-0.15-1.74-0.47c-1.68-0.96-2.25-3.1-1.29-4.78c14.6-25.41,12.78-78.8-13.18-114.78
	c-13.32-18.46-37.81-38.71-78.86-30.34c-1.89,0.38-3.74-0.84-4.13-2.73c-0.39-1.89,0.84-3.74,2.73-4.13
	c34.89-7.11,65.4,4.65,85.93,33.11c12.48,17.3,20.67,39.92,23.06,63.69c2.29,22.82-1.17,44.21-9.49,58.68
	C173.15,235.87,171.97,236.5,170.76,236.5z"/>
<path class="st0" d="M257.17,303.34c-5.92,0-14.64-3.88-26.38-11.7c-14.91-9.93-32.76-25.04-50.27-42.55
	c-17.51-17.51-32.62-35.36-42.55-50.27c-11.31-16.97-14.37-27.65-9.38-32.64c1.37-1.37,3.58-1.37,4.95,0c1.37,1.37,1.37,3.58,0,4.95
	c-0.71,0.71-1.05,6.83,10.26,23.81c9.68,14.54,24.48,32.01,41.67,49.2s34.66,31.99,49.2,41.67c16.98,11.31,23.09,10.97,23.81,10.26
	c1.37-1.37,3.58-1.37,4.95,0c1.37,1.37,1.37,3.58,0,4.95C261.89,302.57,259.81,303.34,257.17,303.34z"/>
</svg>
